HIERARCHY
ROOT Hips
{
	OFFSET -183.429703 89.960052 22.660780
	CHANNELS 6 Xposition Yposition Zposition Zrotation Yrotation Xrotation 
	JOINT LeftUpLeg
	{
		OFFSET 0.103454 1.857828 10.548502
		CHANNELS 3 Zrotation Yrotation Xrotation
		JOINT LeftLeg
		{
			OFFSET 43.500000 -0.000023 -0.000008
			CHANNELS 3 Zrotation Yrotation Xrotation
			JOINT LeftFoot
			{
				OFFSET 42.372192 0.000008 0.000008
				CHANNELS 3 Zrotation Yrotation Xrotation
				JOINT LeftToe
				{
					OFFSET 17.299997 -0.000001 0.000000
					CHANNELS 3 Zrotation Yrotation Xrotation
					End Site
					{
						OFFSET 0.000000 0.000000 0.000000
					}
				}
			}
		}
	}
	JOINT RightUpLeg
	{
		OFFSET 0.103459 1.857828 -10.548505
		CHANNELS 3 Zrotation Yrotation Xrotation
		JOINT RightLeg
		{
			OFFSET 43.500046 -0.000027 0.000015
			CHANNELS 3 Zrotation Yrotation Xrotation
			JOINT RightFoot
			{
				OFFSET 42.372261 -0.000008 0.000019
				CHANNELS 3 Zrotation Yrotation Xrotation
				JOINT RightToe
				{
					OFFSET 17.299992 -0.000006 -0.000002
					CHANNELS 3 Zrotation Yrotation Xrotation
					End Site
					{
						OFFSET 0.000000 0.000000 0.000000
					}
				}
			}
		}
	}
	JOINT Spine
	{
		OFFSET 6.901967 -2.603729 0.000006
		CHANNELS 3 Zrotation Yrotation Xrotation
		JOINT Spine1
		{
			OFFSET 12.588098 -0.000001 -0.000005
			CHANNELS 3 Zrotation Yrotation Xrotation
			JOINT Spine2
			{
				OFFSET 12.343207 0.000001 -0.000003
				CHANNELS 3 Zrotation Yrotation Xrotation
				JOINT Neck
				{
					OFFSET 25.832897 -0.000006 -0.000001
					CHANNELS 3 Zrotation Yrotation Xrotation
					JOINT Head
					{
						OFFSET 11.766602 0.000010 0.000005
						CHANNELS 3 Zrotation Yrotation Xrotation
						End Site
						{
							OFFSET 0.000000 0.000000 0.000000
						}
					}
				}
				JOINT LeftShoulder
				{
					OFFSET 19.745901 -1.480368 6.000114
					CHANNELS 3 Zrotation Yrotation Xrotation
					JOINT LeftArm
					{
						OFFSET 11.284125 -0.000009 -0.000026
						CHANNELS 3 Zrotation Yrotation Xrotation
						JOINT LeftForeArm
						{
							OFFSET 33.000046 0.000005 0.000037
							CHANNELS 3 Zrotation Yrotation Xrotation
							JOINT LeftHand
							{
								OFFSET 25.200003 0.000016 -0.000001
								CHANNELS 3 Zrotation Yrotation Xrotation
								End Site
								{
									OFFSET 0.000000 0.000000 0.000000
								}
							}
						}
					}
				}
				JOINT RightShoulder
				{
					OFFSET 19.746088 -1.480377 -6.000074
					CHANNELS 3 Zrotation Yrotation Xrotation
					JOINT RightArm
					{
						OFFSET 11.284132 -0.000015 -0.000021
						CHANNELS 3 Zrotation Yrotation Xrotation
						JOINT RightForeArm
						{
							OFFSET 33.000107 0.000015 0.000018
							CHANNELS 3 Zrotation Yrotation Xrotation
							JOINT RightHand
							{
								OFFSET 25.199774 0.000138 0.000420
								CHANNELS 3 Zrotation Yrotation Xrotation
								End Site
								{
									OFFSET 0.000000 0.000000 0.000000
								}
							}
						}
					}
				}
			}
		}
	}
}
MOTION
Frames: 5
Frame Time: 0.033333
172.816299 90.416618 185.888199 90.031319 -0.931484 83.852060 172.697945 -6.290798 173.026286 -26.034540 0.101449 -4.528086 87.067652 1.583584 -8.452941 21.454551 0.003092 0.000001 172.584715 6.407699 -175.217520 -23.361912 -2.562353 4.745857 88.506076 -1.608416 9.918776 21.454557 -0.003126 -0.000019 6.133079 0.056148 0.072092 2.253371 0.090268 0.145046 1.935274 0.091280 0.144498 -0.578753 6.730365 -1.170503 -22.932435 -8.570362 3.975959 -152.262006 -81.303464 -29.665810 -17.428088 64.017054 43.381619 -32.792165 -17.562368 1.451265 11.544524 -3.421410 -9.971526 170.308021 78.348724 -8.408419 -0.111900 -62.555210 -21.490369 -33.311297 9.666558 -0.977686 7.283420 2.526866 -6.886173 
172.802704 90.327667 186.368103 90.031954 -0.900908 83.653070 172.984267 -6.319710 172.894149 -26.287375 0.048210 -4.558870 87.528184 1.629491 -8.496429 21.454555 0.003103 0.000000 172.758953 6.448805 -175.311026 -23.643627 -2.560047 4.668059 88.950373 -1.584294 9.957323 21.454558 -0.003114 -0.000018 6.119765 0.053799 0.059247 2.226719 0.089090 0.119322 1.908630 0.089945 0.118779 -0.393728 6.657004 -1.124499 -23.020417 -8.574598 4.004718 -152.689275 -81.346283 -29.231639 -17.602909 64.022013 43.351375 -32.744678 -17.567516 1.450568 11.523254 -3.331168 -10.070025 170.100793 78.371523 -8.618511 -0.000550 -62.660203 -21.480188 -33.486894 9.657236 -0.980840 7.217784 2.521264 -6.996953 
172.781296 90.238029 186.912292 90.011149 -0.867336 83.466073 173.328577 -6.359596 172.789784 -26.515196 -0.002699 -4.600203 88.004419 1.682013 -8.551504 21.454553 0.003086 -0.000002 173.014866 6.464303 -175.388316 -23.863687 -2.567471 4.594696 89.387662 -1.559888 10.014398 21.454558 -0.003096 -0.000015 6.099069 0.051802 0.039545 2.185334 0.098381 0.079990 1.867236 0.098990 0.079401 -0.204575 6.572365 -1.094665 -23.047155 -8.538703 3.991496 -153.108266 -81.391683 -28.805715 -17.658537 64.005395 43.444320 -32.443897 -17.362553 1.430951 11.574003 -3.145475 -10.165487 169.906625 78.377930 -8.815883 0.195789 -62.680462 -21.719981 -33.673587 9.658986 -0.985094 7.164396 2.465485 -7.067880 
172.755005 90.145973 187.515701 89.997728 -0.876535 83.289062 173.690044 -6.378403 172.709434 -26.697504 -0.041127 -4.655086 88.487430 1.741778 -8.621676 21.454553 0.003091 0.000001 173.280369 6.485504 -175.502940 -24.063943 -2.554203 4.551009 89.839322 -1.556606 10.080842 21.454558 -0.003093 -0.000015 6.056996 0.049876 0.014201 2.101149 0.103896 0.029326 1.783055 0.104205 0.028703 0.006789 6.525149 -1.062821 -23.023588 -8.491671 3.978323 -153.429367 -81.432732 -28.479336 -17.569304 63.965357 43.688834 -31.948049 -16.944991 1.393676 11.699800 -2.943616 -10.325430 169.984789 78.366087 -8.736707 0.418134 -62.651276 -22.018363 -33.787184 9.639875 -0.986173 7.134753 2.395973 -7.135983 
172.725693 90.046898 188.181000 90.006320 -0.943363 83.100104 174.060595 -6.368809 172.607145 -26.832113 -0.065104 -4.711396 88.982229 1.801482 -8.703468 21.454551 0.003091 -0.000001 173.516065 6.525208 -175.684787 -24.284884 -2.515338 4.542567 90.326608 -1.581550 10.148390 21.454558 -0.003101 -0.000016 5.991201 0.047931 -0.011427 1.969543 0.099554 -0.022051 1.651431 0.099559 -0.022644 0.204910 6.545010 -1.015056 -22.939055 -8.500492 4.015937 -153.622812 -81.478242 -28.282208 -17.309038 63.926561 44.077728 -31.309703 -16.365528 1.343303 11.835805 -2.718267 -10.514298 170.316805 78.354885 -8.399190 0.629660 -62.646919 -22.005838 -33.738877 9.510402 -0.976612 7.108101 2.349358 -7.372066 
